<svg xmlns="http://www.w3.org/2000/svg" viewBox="0 0 32 32">
  <rect width="32" height="32" rx="7" fill="#09090b"/>
  <svg x="5" y="5" width="22" height="22" viewBox="0 0 24 24" fill="none">
    <path
      d="M9.937 15.5A2 2 0 0 0 8.5 14.063l-6.135-1.582a.5.5 0 0 1 0-.962L8.5 9.936A2 2 0 0 0 9.937 8.5l1.582-6.135a.5.5 0 0 1 .963 0L14.063 8.5A2 2 0 0 0 15.5 9.937l6.135 1.581a.5.5 0 0 1 0 .964L15.5 14.063a2 2 0 0 0-1.437 1.437l-1.582 6.135a.5.5 0 0 1-.963 0z"
      fill="white"
    />
    <line x1="20" y1="3" x2="20" y2="7" stroke="white" stroke-width="2" stroke-linecap="round"/>
    <line x1="22" y1="5" x2="18" y2="5" stroke="white" stroke-width="2" stroke-linecap="round"/>
    <line x1="4" y1="17" x2="4" y2="21" stroke="white" stroke-width="2" stroke-linecap="round"/>
    <line x1="6" y1="19" x2="2" y2="19" stroke="white" stroke-width="2" stroke-linecap="round"/>
  </svg>
</svg>
